#define cpu2_width 20
#define cpu2_height 14
static unsigned char cpu2_bits[] = {
   0x80, 0x2a, 0x00, 0x00, 0x00, 0x00, 0xa0, 0xbf, 0x00, 0x80, 0x3f, 0x00,
   0xa0, 0xbf, 0x00, 0x80, 0x3f, 0x00, 0xa0, 0xbf, 0x00, 0x80, 0x3f, 0x00,
   0xa0, 0xbf, 0x00, 0x00, 0x00, 0x00, 0x80, 0x2a, 0x00, 0x00, 0x00, 0x00,
   0x00, 0x00, 0x00, 0x00, 0x00, 0x00 };
