#define mem2_width 20
#define mem2_height 14
static unsigned char mem2_bits[] = {
   0x00, 0x00, 0x00, 0xa8, 0xaa, 0x00, 0x00, 0x00, 0x00, 0xf8, 0xff, 0x00,
   0xf8, 0x9f, 0x00, 0xf8, 0x9f, 0x00, 0xf8, 0xff, 0x00, 0x00, 0x00, 0x00,
   0xa8, 0xaa, 0x00, 0x00, 0x00, 0x00, 0x00, 0x00, 0x00, 0x00, 0x00, 0x00,
   0x00, 0x00, 0x00, 0x00, 0x00, 0x00 };
